%TF.GenerationSoftware,KiCad,Pcbnew,7.0.5*%
%TF.CreationDate,2024-01-08T00:08:42+01:00*%
%TF.ProjectId,can-usb-dongle,63616e2d-7573-4622-9d64-6f6e676c652e,rev?*%
%TF.SameCoordinates,Original*%
%TF.FileFunction,Copper,L2,Bot*%
%TF.FilePolarity,Positive*%
%FSLAX46Y46*%
G04 Gerber Fmt 4.6, Leading zero omitted, Abs format (unit mm)*
G04 Created by KiCad (PCBNEW 7.0.5) date 2024-01-08 00:08:42*
%MOMM*%
%LPD*%
G01*
G04 APERTURE LIST*
%TA.AperFunction,ComponentPad*%
%ADD10C,1.208000*%
%TD*%
%TA.AperFunction,ComponentPad*%
%ADD11O,2.100000X1.000000*%
%TD*%
%TA.AperFunction,ComponentPad*%
%ADD12O,1.800000X1.000000*%
%TD*%
%TA.AperFunction,ComponentPad*%
%ADD13R,1.700000X1.700000*%
%TD*%
%TA.AperFunction,ComponentPad*%
%ADD14O,1.700000X1.700000*%
%TD*%
%TA.AperFunction,ComponentPad*%
%ADD15C,4.400000*%
%TD*%
%TA.AperFunction,ViaPad*%
%ADD16C,0.800000*%
%TD*%
%TA.AperFunction,Conductor*%
%ADD17C,0.500000*%
%TD*%
%TA.AperFunction,Conductor*%
%ADD18C,0.250000*%
%TD*%
G04 APERTURE END LIST*
D10*
%TO.P,J2,1,Pin_1*%
%TO.N,Net-(J2-Pin_1)*%
X59392000Y-43000000D03*
%TO.P,J2,2,Pin_2*%
%TO.N,/CANH*%
X59392000Y-41000000D03*
%TO.P,J2,3,Pin_3*%
%TO.N,/CANL*%
X59392000Y-39000000D03*
%TO.P,J2,4,Pin_4*%
%TO.N,GND*%
X59392000Y-37000000D03*
%TD*%
D11*
%TO.P,J1,S1,SHIELD*%
%TO.N,GND*%
X26162000Y-35680000D03*
D12*
X21982000Y-35680000D03*
D11*
X26162000Y-44320000D03*
D12*
X21982000Y-44320000D03*
%TD*%
D13*
%TO.P,JP1,1,A*%
%TO.N,+5V*%
X62499000Y-32860000D03*
D14*
%TO.P,JP1,2,B*%
%TO.N,Net-(J2-Pin_1)*%
X65039000Y-32860000D03*
%TD*%
D15*
%TO.P,H1,1,1*%
%TO.N,GND*%
X44000000Y-47000000D03*
%TD*%
D16*
%TO.N,+3.3V*%
X41656000Y-39718000D03*
X35039000Y-41242000D03*
X56896000Y-34130000D03*
X37835604Y-32334300D03*
X33528000Y-33876000D03*
%TO.N,GND*%
X28500000Y-42100000D03*
X35052000Y-35400000D03*
X50292000Y-31423500D03*
X41148000Y-36924000D03*
X34798000Y-36416000D03*
X61722000Y-42512000D03*
X62992000Y-34892000D03*
X66294000Y-36416000D03*
X31750000Y-34638000D03*
X25190057Y-32541672D03*
X48260000Y-37940000D03*
X20828000Y-36924000D03*
X47244000Y-37940000D03*
X44704000Y-41496000D03*
X50546000Y-34384000D03*
X47752000Y-43490500D03*
X48260000Y-35654000D03*
X32258000Y-31844000D03*
X32258000Y-40226000D03*
X65786000Y-30828000D03*
X20574000Y-43020000D03*
X29321850Y-38366711D03*
X44704000Y-35400000D03*
X55880000Y-38702000D03*
X53848000Y-34384000D03*
X57150000Y-44798000D03*
X52832000Y-44544000D03*
X36576000Y-46830000D03*
X28448000Y-49370000D03*
X56134000Y-35654000D03*
X57150000Y-31590000D03*
X37084000Y-31423500D03*
X46736000Y-39464000D03*
X66294000Y-42512000D03*
X39624000Y-44036000D03*
X33411147Y-49009308D03*
X22098000Y-49116000D03*
X32512000Y-36416000D03*
X60198000Y-48608000D03*
X38608000Y-34638000D03*
X40132000Y-36924000D03*
X27940000Y-35362500D03*
X55372000Y-48608000D03*
X42164000Y-38448000D03*
X30480000Y-39972000D03*
X33390825Y-46865327D03*
X48514000Y-41402000D03*
X50800000Y-39972000D03*
X38862000Y-39718000D03*
X42418000Y-41242000D03*
X62738000Y-49370000D03*
X23368000Y-33368000D03*
X43180000Y-42004000D03*
%TO.N,/EXT_RST*%
X43641500Y-32077500D03*
X39336889Y-31169291D03*
%TO.N,/~{RST}*%
X37750500Y-41242000D03*
X43434000Y-35782000D03*
%TO.N,/VCP_RX*%
X43387500Y-33776500D03*
X37846000Y-47852000D03*
%TO.N,/VCP_TX*%
X43434000Y-34775583D03*
X37846000Y-43782000D03*
%TO.N,/CAN_TX*%
X54503000Y-37497000D03*
X47494051Y-41762548D03*
%TO.N,/CAN_RX*%
X46482000Y-41750000D03*
X50693000Y-37497000D03*
%TO.N,/BOOT0*%
X41656000Y-42766000D03*
X61722000Y-46068000D03*
%TO.N,Net-(D2-A)*%
X42217310Y-31587369D03*
X54630000Y-32352000D03*
%TD*%
D17*
%TO.N,+3.3V*%
X37835604Y-32334300D02*
X36293904Y-33876000D01*
X38929000Y-32927000D02*
X54002918Y-32927000D01*
X45974000Y-32927000D02*
X44450000Y-32927000D01*
X55205918Y-34130000D02*
X56896000Y-34130000D01*
X43688000Y-39718000D02*
X45974000Y-37432000D01*
X41656000Y-39718000D02*
X43688000Y-39718000D01*
X45974000Y-37432000D02*
X45974000Y-32927000D01*
X37835604Y-32334300D02*
X38336300Y-32334300D01*
X36293904Y-33876000D02*
X33528000Y-33876000D01*
D18*
X33528000Y-36657000D02*
X33528000Y-33876000D01*
X35039000Y-41242000D02*
X35039000Y-38168000D01*
X35039000Y-38168000D02*
X33528000Y-36657000D01*
D17*
X54002918Y-32927000D02*
X55205918Y-34130000D01*
X38336300Y-32334300D02*
X38929000Y-32927000D01*
D18*
%TO.N,/EXT_RST*%
X40519598Y-32352000D02*
X43367000Y-32352000D01*
X39336889Y-31169291D02*
X40519598Y-32352000D01*
X43367000Y-32352000D02*
X43641500Y-32077500D01*
%TO.N,/~{RST}*%
X43434000Y-35782000D02*
X40006792Y-35782000D01*
X40006792Y-35782000D02*
X37750500Y-38038292D01*
X37750500Y-38038292D02*
X37750500Y-41242000D01*
%TO.N,/VCP_RX*%
X40739500Y-33776500D02*
X36576000Y-37940000D01*
X37121000Y-44063695D02*
X37121000Y-44082305D01*
X37846000Y-44788695D02*
X37846000Y-47852000D01*
X37564305Y-44507000D02*
X37846000Y-44788695D01*
X37545695Y-44507000D02*
X37564305Y-44507000D01*
X36576000Y-37940000D02*
X36576000Y-43518695D01*
X37121000Y-44082305D02*
X37545695Y-44507000D01*
X43387500Y-33776500D02*
X40739500Y-33776500D01*
X36576000Y-43518695D02*
X37121000Y-44063695D01*
%TO.N,/VCP_TX*%
X40376813Y-34775583D02*
X37026000Y-38126396D01*
X43434000Y-34775583D02*
X40376813Y-34775583D01*
X37026000Y-38126396D02*
X37026000Y-42962000D01*
X37026000Y-42962000D02*
X37846000Y-43782000D01*
%TO.N,/CAN_TX*%
X47494051Y-41762548D02*
X47494051Y-40518345D01*
X53778000Y-38222000D02*
X54503000Y-37497000D01*
X49790396Y-38222000D02*
X53778000Y-38222000D01*
X47494051Y-40518345D02*
X49790396Y-38222000D01*
%TO.N,/CAN_RX*%
X46482000Y-41750000D02*
X46482000Y-40894000D01*
X46482000Y-40894000D02*
X49879000Y-37497000D01*
X49879000Y-37497000D02*
X50693000Y-37497000D01*
%TO.N,/BOOT0*%
X59944000Y-46068000D02*
X61722000Y-46068000D01*
X41656000Y-42766000D02*
X56642000Y-42766000D01*
X56642000Y-42766000D02*
X59944000Y-46068000D01*
%TO.N,Net-(D2-A)*%
X42217310Y-31587369D02*
X42722679Y-31082000D01*
X48765673Y-32352000D02*
X54630000Y-32352000D01*
X47495673Y-31082000D02*
X48765673Y-32352000D01*
X42722679Y-31082000D02*
X47495673Y-31082000D01*
%TD*%
%TA.AperFunction,Conductor*%
%TO.N,GND*%
G36*
X66000518Y-30000546D02*
G01*
X66042616Y-30004228D01*
X66045495Y-30004480D01*
X66179937Y-30017722D01*
X66183759Y-30018417D01*
X66258191Y-30038361D01*
X66258438Y-30038431D01*
X66358367Y-30068743D01*
X66361535Y-30069957D01*
X66436628Y-30104973D01*
X66437187Y-30105253D01*
X66524982Y-30152180D01*
X66526202Y-30152930D01*
X66596405Y-30202087D01*
X66597127Y-30202635D01*
X66672714Y-30264667D01*
X66673570Y-30265444D01*
X66734554Y-30326428D01*
X66735334Y-30327287D01*
X66797357Y-30402863D01*
X66797911Y-30403593D01*
X66847068Y-30473796D01*
X66847822Y-30475023D01*
X66894742Y-30562805D01*
X66895035Y-30563391D01*
X66930040Y-30638460D01*
X66931256Y-30641636D01*
X66961549Y-30741497D01*
X66961656Y-30741875D01*
X66981577Y-30816220D01*
X66982279Y-30820080D01*
X66995515Y-30954478D01*
X66999454Y-30999481D01*
X66999500Y-31000528D01*
X66999500Y-48999471D01*
X66999454Y-49000518D01*
X66995515Y-49045520D01*
X66982279Y-49179918D01*
X66981577Y-49183778D01*
X66961656Y-49258123D01*
X66961549Y-49258501D01*
X66931256Y-49358362D01*
X66930040Y-49361538D01*
X66895035Y-49436607D01*
X66894742Y-49437193D01*
X66847822Y-49524975D01*
X66847068Y-49526202D01*
X66797911Y-49596405D01*
X66797357Y-49597135D01*
X66735346Y-49672697D01*
X66734554Y-49673570D01*
X66673570Y-49734554D01*
X66672697Y-49735346D01*
X66597135Y-49797357D01*
X66596405Y-49797911D01*
X66526202Y-49847068D01*
X66524975Y-49847822D01*
X66437193Y-49894742D01*
X66436607Y-49895035D01*
X66361538Y-49930040D01*
X66358362Y-49931256D01*
X66258501Y-49961549D01*
X66258123Y-49961656D01*
X66183778Y-49981577D01*
X66179918Y-49982279D01*
X66045520Y-49995515D01*
X66000519Y-49999454D01*
X65999472Y-49999500D01*
X21000528Y-49999500D01*
X20999481Y-49999454D01*
X20954478Y-49995515D01*
X20820080Y-49982279D01*
X20816221Y-49981577D01*
X20799499Y-49977096D01*
X20741875Y-49961656D01*
X20741497Y-49961549D01*
X20641636Y-49931256D01*
X20638460Y-49930040D01*
X20563391Y-49895035D01*
X20562805Y-49894742D01*
X20475023Y-49847822D01*
X20473796Y-49847068D01*
X20403593Y-49797911D01*
X20402863Y-49797357D01*
X20327287Y-49735334D01*
X20326428Y-49734554D01*
X20265444Y-49673570D01*
X20264667Y-49672714D01*
X20202635Y-49597127D01*
X20202087Y-49596405D01*
X20152930Y-49526202D01*
X20152180Y-49524982D01*
X20105253Y-49437187D01*
X20104973Y-49436628D01*
X20069957Y-49361535D01*
X20068742Y-49358362D01*
X20038431Y-49258438D01*
X20038361Y-49258191D01*
X20018417Y-49183759D01*
X20017722Y-49179937D01*
X20004480Y-49045491D01*
X20000546Y-49000518D01*
X20000500Y-48999472D01*
X20000500Y-44670000D01*
X20975141Y-44670000D01*
X21001677Y-44720561D01*
X21001683Y-44720570D01*
X21114402Y-44847803D01*
X21254306Y-44944372D01*
X21254310Y-44944374D01*
X21413247Y-45004650D01*
X21539659Y-45019999D01*
X21539667Y-45020000D01*
X21631999Y-45020000D01*
X21632000Y-45019999D01*
X22332000Y-45019999D01*
X22332001Y-45020000D01*
X22424333Y-45020000D01*
X22424340Y-45019999D01*
X22550752Y-45004650D01*
X22709689Y-44944374D01*
X22709693Y-44944372D01*
X22849597Y-44847803D01*
X22962316Y-44720570D01*
X22962322Y-44720561D01*
X22988859Y-44670000D01*
X25005141Y-44670000D01*
X25031677Y-44720561D01*
X25031683Y-44720570D01*
X25144402Y-44847803D01*
X25284306Y-44944372D01*
X25284310Y-44944374D01*
X25443247Y-45004650D01*
X25569659Y-45019999D01*
X25569667Y-45020000D01*
X25811999Y-45020000D01*
X25812000Y-45019999D01*
X26512000Y-45019999D01*
X26512001Y-45020000D01*
X26754333Y-45020000D01*
X26754340Y-45019999D01*
X26880752Y-45004650D01*
X27039689Y-44944374D01*
X27039693Y-44944372D01*
X27179597Y-44847803D01*
X27292316Y-44720570D01*
X27292322Y-44720561D01*
X27318859Y-44670000D01*
X26512001Y-44670000D01*
X26512000Y-44670001D01*
X26512000Y-45019999D01*
X25812000Y-45019999D01*
X25812000Y-44670001D01*
X25811999Y-44670000D01*
X25005141Y-44670000D01*
X22988859Y-44670000D01*
X22332001Y-44670000D01*
X22332000Y-44670001D01*
X22332000Y-45019999D01*
X21632000Y-45019999D01*
X21632000Y-44670001D01*
X21631999Y-44670000D01*
X20975141Y-44670000D01*
X20000500Y-44670000D01*
X20000500Y-44291840D01*
X21278105Y-44291840D01*
X21288454Y-44403521D01*
X21338448Y-44503922D01*
X21421334Y-44579484D01*
X21525920Y-44620000D01*
X22409802Y-44620000D01*
X22492250Y-44604588D01*
X22587610Y-44545543D01*
X22655201Y-44456038D01*
X22685895Y-44348160D01*
X22680676Y-44291840D01*
X25308105Y-44291840D01*
X25318454Y-44403521D01*
X25368448Y-44503922D01*
X25451334Y-44579484D01*
X25555920Y-44620000D01*
X26739802Y-44620000D01*
X26822250Y-44604588D01*
X26917610Y-44545543D01*
X26985201Y-44456038D01*
X27015895Y-44348160D01*
X27005546Y-44236479D01*
X26955552Y-44136078D01*
X26872666Y-44060516D01*
X26768080Y-44020000D01*
X25584198Y-44020000D01*
X25501750Y-44035412D01*
X25406390Y-44094457D01*
X25338799Y-44183962D01*
X25308105Y-44291840D01*
X22680676Y-44291840D01*
X22675546Y-44236479D01*
X22625552Y-44136078D01*
X22542666Y-44060516D01*
X22438080Y-44020000D01*
X21554198Y-44020000D01*
X21471750Y-44035412D01*
X21376390Y-44094457D01*
X21308799Y-44183962D01*
X21278105Y-44291840D01*
X20000500Y-44291840D01*
X20000500Y-43969999D01*
X20975141Y-43969999D01*
X20975142Y-43970000D01*
X21631999Y-43970000D01*
X21632000Y-43969999D01*
X21632000Y-43620001D01*
X21631999Y-43620000D01*
X22332000Y-43620000D01*
X22332000Y-43969999D01*
X22332001Y-43970000D01*
X22988858Y-43970000D01*
X22988858Y-43969999D01*
X25005141Y-43969999D01*
X25005142Y-43970000D01*
X25811999Y-43970000D01*
X25812000Y-43969999D01*
X25812000Y-43620001D01*
X25811999Y-43620000D01*
X26512000Y-43620000D01*
X26512000Y-43969999D01*
X26512001Y-43970000D01*
X27318858Y-43970000D01*
X27318858Y-43969999D01*
X27292322Y-43919438D01*
X27292316Y-43919429D01*
X27179597Y-43792196D01*
X27039693Y-43695627D01*
X27039689Y-43695625D01*
X26880752Y-43635349D01*
X26754340Y-43620000D01*
X26512000Y-43620000D01*
X25811999Y-43620000D01*
X25569659Y-43620000D01*
X25443247Y-43635349D01*
X25284310Y-43695625D01*
X25284306Y-43695627D01*
X25144402Y-43792196D01*
X25031683Y-43919429D01*
X25031677Y-43919438D01*
X25005141Y-43969999D01*
X22988858Y-43969999D01*
X22962322Y-43919438D01*
X22962316Y-43919429D01*
X22849597Y-43792196D01*
X22709693Y-43695627D01*
X22709689Y-43695625D01*
X22550752Y-43635349D01*
X22424340Y-43620000D01*
X22332000Y-43620000D01*
X21631999Y-43620000D01*
X21539659Y-43620000D01*
X21413247Y-43635349D01*
X21254310Y-43695625D01*
X21254306Y-43695627D01*
X21114402Y-43792196D01*
X21001683Y-43919429D01*
X21001677Y-43919438D01*
X20975141Y-43969999D01*
X20000500Y-43969999D01*
X20000500Y-42890000D01*
X25081534Y-42890000D01*
X25101313Y-43040237D01*
X25101314Y-43040241D01*
X25159299Y-43180227D01*
X25159305Y-43180238D01*
X25251543Y-43300444D01*
X25251545Y-43300446D01*
X25251549Y-43300451D01*
X25251553Y-43300454D01*
X25251555Y-43300456D01*
X25371761Y-43392694D01*
X25371763Y-43392695D01*
X25371767Y-43392698D01*
X25371772Y-43392700D01*
X25511758Y-43450685D01*
X25511760Y-43450685D01*
X25511764Y-43450687D01*
X25624280Y-43465500D01*
X25624284Y-43465500D01*
X25699716Y-43465500D01*
X25699720Y-43465500D01*
X25812236Y-43450687D01*
X25952233Y-43392698D01*
X26072451Y-43300451D01*
X26164698Y-43180233D01*
X26222687Y-43040236D01*
X26242466Y-42890000D01*
X26222687Y-42739764D01*
X26164698Y-42599767D01*
X26164695Y-42599763D01*
X26164694Y-42599761D01*
X26072456Y-42479555D01*
X26072454Y-42479553D01*
X26072451Y-42479549D01*
X26072446Y-42479545D01*
X26072444Y-42479543D01*
X25952238Y-42387305D01*
X25952234Y-42387302D01*
X25952233Y-42387302D01*
X25952230Y-42387301D01*
X25952227Y-42387299D01*
X25812241Y-42329314D01*
X25812237Y-42329313D01*
X25789732Y-42326350D01*
X25699720Y-42314500D01*
X25624280Y-42314500D01*
X25549269Y-42324375D01*
X25511762Y-42329313D01*
X25511758Y-42329314D01*
X25371772Y-42387299D01*
X25371761Y-42387305D01*
X25251555Y-42479543D01*
X25251543Y-42479555D01*
X25159305Y-42599761D01*
X25159299Y-42599772D01*
X25101314Y-42739758D01*
X25101313Y-42739762D01*
X25081534Y-42890000D01*
X20000500Y-42890000D01*
X20000500Y-40000000D01*
X21144341Y-40000000D01*
X21164937Y-40235409D01*
X21226096Y-40463662D01*
X21325961Y-40677822D01*
X21325962Y-40677823D01*
X21325965Y-40677829D01*
X21461505Y-40871401D01*
X21628599Y-41038495D01*
X21822171Y-41174035D01*
X21822176Y-41174037D01*
X21822177Y-41174038D01*
X21944364Y-41231015D01*
X22036337Y-41273903D01*
X22264592Y-41335063D01*
X22441034Y-41350500D01*
X22441042Y-41350500D01*
X22558958Y-41350500D01*
X22558966Y-41350500D01*
X22735408Y-41335063D01*
X22963663Y-41273903D01*
X23177829Y-41174035D01*
X23371401Y-41038495D01*
X23538495Y-40871401D01*
X23674035Y-40677830D01*
X23773903Y-40463663D01*
X23835063Y-40235408D01*
X23855659Y-40000000D01*
X23835063Y-39764592D01*
X23773903Y-39536337D01*
X23759184Y-39504772D01*
X23674038Y-39322177D01*
X23674037Y-39322176D01*
X23674035Y-39322171D01*
X23538495Y-39128599D01*
X23371401Y-38961505D01*
X23177829Y-38825965D01*
X23177825Y-38825963D01*
X23177822Y-38825961D01*
X22963662Y-38726096D01*
X22735408Y-38664937D01*
X22735410Y-38664937D01*
X22700119Y-38661849D01*
X22558966Y-38649500D01*
X22441034Y-38649500D01*
X22299880Y-38661849D01*
X22264590Y-38664937D01*
X22036337Y-38726096D01*
X21822177Y-38825961D01*
X21628598Y-38961505D01*
X21461505Y-39128598D01*
X21325961Y-39322176D01*
X21226096Y-39536337D01*
X21164937Y-39764590D01*
X21144341Y-40000000D01*
X20000500Y-40000000D01*
X20000500Y-37109999D01*
X25081534Y-37109999D01*
X25101313Y-37260237D01*
X25101314Y-37260241D01*
X25159299Y-37400227D01*
X25159305Y-37400238D01*
X25251543Y-37520444D01*
X25251545Y-37520446D01*
X25251549Y-37520451D01*
X25251553Y-37520454D01*
X25251555Y-37520456D01*
X25371761Y-37612694D01*
X25371763Y-37612695D01*
X25371767Y-37612698D01*
X25371772Y-37612700D01*
X25511758Y-37670685D01*
X25511760Y-37670685D01*
X25511764Y-37670687D01*
X25624280Y-37685500D01*
X25624284Y-37685500D01*
X25699716Y-37685500D01*
X25699720Y-37685500D01*
X25812236Y-37670687D01*
X25952233Y-37612698D01*
X26072451Y-37520451D01*
X26164698Y-37400233D01*
X26222687Y-37260236D01*
X26242466Y-37110000D01*
X26222687Y-36959764D01*
X26196929Y-36897580D01*
X26164779Y-36819962D01*
X26164698Y-36819767D01*
X26164695Y-36819763D01*
X26164694Y-36819761D01*
X26072456Y-36699555D01*
X26072454Y-36699553D01*
X26072451Y-36699549D01*
X26072446Y-36699545D01*
X26072444Y-36699543D01*
X25952238Y-36607305D01*
X25952234Y-36607302D01*
X25952233Y-36607302D01*
X25952230Y-36607301D01*
X25952227Y-36607299D01*
X25812241Y-36549314D01*
X25812237Y-36549313D01*
X25789732Y-36546350D01*
X25699720Y-36534500D01*
X25624280Y-36534500D01*
X25549269Y-36544375D01*
X25511762Y-36549313D01*
X25511758Y-36549314D01*
X25371772Y-36607299D01*
X25371761Y-36607305D01*
X25251555Y-36699543D01*
X25251543Y-36699555D01*
X25159305Y-36819761D01*
X25159299Y-36819772D01*
X25101314Y-36959758D01*
X25101313Y-36959762D01*
X25081534Y-37109999D01*
X20000500Y-37109999D01*
X20000500Y-36030000D01*
X20975141Y-36030000D01*
X21001677Y-36080561D01*
X21001683Y-36080570D01*
X21114402Y-36207803D01*
X21254306Y-36304372D01*
X21254310Y-36304374D01*
X21413247Y-36364650D01*
X21539659Y-36379999D01*
X21539667Y-36380000D01*
X21631999Y-36380000D01*
X21632000Y-36379999D01*
X22332000Y-36379999D01*
X22332001Y-36380000D01*
X22424333Y-36380000D01*
X22424340Y-36379999D01*
X22550752Y-36364650D01*
X22709689Y-36304374D01*
X22709693Y-36304372D01*
X22849597Y-36207803D01*
X22962316Y-36080570D01*
X22962322Y-36080561D01*
X22988859Y-36030000D01*
X25005141Y-36030000D01*
X25031677Y-36080561D01*
X25031683Y-36080570D01*
X25144402Y-36207803D01*
X25284306Y-36304372D01*
X25284310Y-36304374D01*
X25443247Y-36364650D01*
X25569659Y-36379999D01*
X25569667Y-36380000D01*
X25811999Y-36380000D01*
X25812000Y-36379999D01*
X26512000Y-36379999D01*
X26512001Y-36380000D01*
X26754333Y-36380000D01*
X26754340Y-36379999D01*
X26880752Y-36364650D01*
X27039689Y-36304374D01*
X27039693Y-36304372D01*
X27179597Y-36207803D01*
X27292316Y-36080570D01*
X27292322Y-36080561D01*
X27318859Y-36030000D01*
X26512001Y-36030000D01*
X26512000Y-36030001D01*
X26512000Y-36379999D01*
X25812000Y-36379999D01*
X25812000Y-36030001D01*
X25811999Y-36030000D01*
X25005141Y-36030000D01*
X22988859Y-36030000D01*
X22332001Y-36030000D01*
X22332000Y-36030001D01*
X22332000Y-36379999D01*
X21632000Y-36379999D01*
X21632000Y-36030001D01*
X21631999Y-36030000D01*
X20975141Y-36030000D01*
X20000500Y-36030000D01*
X20000500Y-35651840D01*
X21278105Y-35651840D01*
X21288454Y-35763521D01*
X21338448Y-35863922D01*
X21421334Y-35939484D01*
X21525920Y-35980000D01*
X22409802Y-35980000D01*
X22492250Y-35964588D01*
X22587610Y-35905543D01*
X22655201Y-35816038D01*
X22685895Y-35708160D01*
X22680676Y-35651840D01*
X25308105Y-35651840D01*
X25318454Y-35763521D01*
X25368448Y-35863922D01*
X25451334Y-35939484D01*
X25555920Y-35980000D01*
X26739802Y-35980000D01*
X26822250Y-35964588D01*
X26917610Y-35905543D01*
X26985201Y-35816038D01*
X27015895Y-35708160D01*
X27005546Y-35596479D01*
X26955552Y-35496078D01*
X26872666Y-35420516D01*
X26768080Y-35380000D01*
X25584198Y-35380000D01*
X25501750Y-35395412D01*
X25406390Y-35454457D01*
X25338799Y-35543962D01*
X25308105Y-35651840D01*
X22680676Y-35651840D01*
X22675546Y-35596479D01*
X22625552Y-35496078D01*
X22542666Y-35420516D01*
X22438080Y-35380000D01*
X21554198Y-35380000D01*
X21471750Y-35395412D01*
X21376390Y-35454457D01*
X21308799Y-35543962D01*
X21278105Y-35651840D01*
X20000500Y-35651840D01*
X20000500Y-35329999D01*
X20975141Y-35329999D01*
X20975142Y-35330000D01*
X21631999Y-35330000D01*
X21632000Y-35329999D01*
X21632000Y-34980001D01*
X21631999Y-34980000D01*
X22332000Y-34980000D01*
X22332000Y-35329999D01*
X22332001Y-35330000D01*
X22988858Y-35330000D01*
X22988858Y-35329999D01*
X25005141Y-35329999D01*
X25005142Y-35330000D01*
X25811999Y-35330000D01*
X25812000Y-35329999D01*
X25812000Y-34980001D01*
X25811999Y-34980000D01*
X26512000Y-34980000D01*
X26512000Y-35329999D01*
X26512001Y-35330000D01*
X27318858Y-35330000D01*
X27318858Y-35329999D01*
X27292322Y-35279438D01*
X27292316Y-35279429D01*
X27179597Y-35152196D01*
X27039693Y-35055627D01*
X27039689Y-35055625D01*
X26880752Y-34995349D01*
X26754340Y-34980000D01*
X26512000Y-34980000D01*
X25811999Y-34980000D01*
X25569659Y-34980000D01*
X25443247Y-34995349D01*
X25284310Y-35055625D01*
X25284306Y-35055627D01*
X25144402Y-35152196D01*
X25031683Y-35279429D01*
X25031677Y-35279438D01*
X25005141Y-35329999D01*
X22988858Y-35329999D01*
X22962322Y-35279438D01*
X22962316Y-35279429D01*
X22849597Y-35152196D01*
X22709693Y-35055627D01*
X22709689Y-35055625D01*
X22550752Y-34995349D01*
X22424340Y-34980000D01*
X22332000Y-34980000D01*
X21631999Y-34980000D01*
X21539659Y-34980000D01*
X21413247Y-34995349D01*
X21254310Y-35055625D01*
X21254306Y-35055627D01*
X21114402Y-35152196D01*
X21001683Y-35279429D01*
X21001677Y-35279438D01*
X20975141Y-35329999D01*
X20000500Y-35329999D01*
X20000500Y-33876000D01*
X32922318Y-33876000D01*
X32926860Y-33910499D01*
X32942956Y-34032763D01*
X32942957Y-34032767D01*
X33003461Y-34178835D01*
X33003464Y-34178841D01*
X33099718Y-34304282D01*
X33193110Y-34375944D01*
X33202295Y-34391851D01*
X33202500Y-34394984D01*
X33202499Y-36642258D01*
X33202453Y-36643304D01*
X33198735Y-36685806D01*
X33198736Y-36685807D01*
X33209778Y-36727017D01*
X33210004Y-36728040D01*
X33217411Y-36770043D01*
X33223102Y-36779902D01*
X33225499Y-36785689D01*
X33228444Y-36796681D01*
X33228445Y-36796682D01*
X33252916Y-36831632D01*
X33253479Y-36832516D01*
X33274804Y-36869453D01*
X33307481Y-36896873D01*
X33308253Y-36897580D01*
X34706471Y-38295796D01*
X34713500Y-38312767D01*
X34713500Y-40723015D01*
X34706471Y-40739986D01*
X34704110Y-40742055D01*
X34610724Y-40813712D01*
X34610716Y-40813720D01*
X34514464Y-40939158D01*
X34514461Y-40939164D01*
X34453957Y-41085232D01*
X34453956Y-41085236D01*
X34433318Y-41242000D01*
X34453956Y-41398763D01*
X34453957Y-41398767D01*
X34514461Y-41544835D01*
X34514464Y-41544841D01*
X34610718Y-41670282D01*
X34736159Y-41766536D01*
X34736164Y-41766538D01*
X34882232Y-41827042D01*
X34882234Y-41827042D01*
X34882238Y-41827044D01*
X35039000Y-41847682D01*
X35195762Y-41827044D01*
X35341841Y-41766536D01*
X35467282Y-41670282D01*
X35563536Y-41544841D01*
X35624044Y-41398762D01*
X35644682Y-41242000D01*
X35624044Y-41085238D01*
X35604795Y-41038768D01*
X35563538Y-40939164D01*
X35563535Y-40939158D01*
X35467282Y-40813718D01*
X35467277Y-40813714D01*
X35467275Y-40813712D01*
X35373890Y-40742055D01*
X35364705Y-40726148D01*
X35364500Y-40723015D01*
X35364500Y-38182740D01*
X35364546Y-38181694D01*
X35368264Y-38139192D01*
X35368263Y-38139190D01*
X35357216Y-38097964D01*
X35356997Y-38096977D01*
X35349588Y-38054955D01*
X35343895Y-38045096D01*
X35341499Y-38039310D01*
X35338554Y-38028316D01*
X35314087Y-37993373D01*
X35313524Y-37992490D01*
X35292194Y-37955545D01*
X35259517Y-37928125D01*
X35258745Y-37927418D01*
X33860529Y-36529203D01*
X33853500Y-36512232D01*
X33853500Y-34394984D01*
X33860529Y-34378013D01*
X33862882Y-34375949D01*
X33920864Y-34331458D01*
X33935474Y-34326500D01*
X36267929Y-34326500D01*
X36269263Y-34326574D01*
X36310939Y-34331270D01*
X36369177Y-34320249D01*
X36369557Y-34320184D01*
X36428191Y-34311348D01*
X36433079Y-34308993D01*
X36439033Y-34307033D01*
X36444376Y-34306023D01*
X36496801Y-34278314D01*
X36497171Y-34278128D01*
X36550546Y-34252425D01*
X36554530Y-34248727D01*
X36559637Y-34245105D01*
X36564442Y-34242566D01*
X36606374Y-34200632D01*
X36606639Y-34200377D01*
X36650098Y-34160055D01*
X36652814Y-34155348D01*
X36656622Y-34150384D01*
X37866029Y-32940977D01*
X37879864Y-32934154D01*
X37992366Y-32919344D01*
X38095709Y-32876538D01*
X38138443Y-32858837D01*
X38138443Y-32858836D01*
X38138445Y-32858836D01*
X38170002Y-32834620D01*
X38187746Y-32829865D01*
X38201585Y-32836689D01*
X38592086Y-33227191D01*
X38592983Y-33228195D01*
X38619120Y-33260969D01*
X38619124Y-33260972D01*
X38668083Y-33294352D01*
X38668450Y-33294612D01*
X38716117Y-33329793D01*
X38721243Y-33331586D01*
X38726832Y-33334407D01*
X38731327Y-33337472D01*
X38787998Y-33354951D01*
X38788354Y-33355069D01*
X38844300Y-33374646D01*
X38844299Y-33374646D01*
X38844579Y-33374656D01*
X38849727Y-33374848D01*
X38855905Y-33375898D01*
X38861097Y-33377500D01*
X38861098Y-33377500D01*
X38920354Y-33377500D01*
X38920772Y-33377507D01*
X38980010Y-33379724D01*
X38983987Y-33378658D01*
X38985258Y-33378318D01*
X38991470Y-33377500D01*
X42888082Y-33377500D01*
X42905053Y-33384529D01*
X42912082Y-33401500D01*
X42907122Y-33416110D01*
X42887555Y-33441610D01*
X42871648Y-33450795D01*
X42868515Y-33451000D01*
X40754235Y-33451000D01*
X40753189Y-33450954D01*
X40710693Y-33447237D01*
X40710689Y-33447237D01*
X40669488Y-33458277D01*
X40668465Y-33458503D01*
X40626455Y-33465911D01*
X40626451Y-33465912D01*
X40616596Y-33471602D01*
X40610811Y-33473999D01*
X40599817Y-33476945D01*
X40599814Y-33476946D01*
X40564867Y-33501415D01*
X40563985Y-33501978D01*
X40527046Y-33523303D01*
X40527046Y-33523304D01*
X40499630Y-33555975D01*
X40498923Y-33556747D01*
X36356251Y-37699420D01*
X36355480Y-37700127D01*
X36322805Y-37727546D01*
X36322801Y-37727550D01*
X36301476Y-37764488D01*
X36300913Y-37765370D01*
X36276446Y-37800314D01*
X36276445Y-37800317D01*
X36273499Y-37811311D01*
X36271102Y-37817096D01*
X36265412Y-37826951D01*
X36265411Y-37826955D01*
X36258004Y-37868959D01*
X36257778Y-37869981D01*
X36246736Y-37911189D01*
X36246736Y-37911193D01*
X36250454Y-37953694D01*
X36250500Y-37954740D01*
X36250500Y-43503953D01*
X36250454Y-43504999D01*
X36246736Y-43547501D01*
X36246736Y-43547502D01*
X36257778Y-43588712D01*
X36258004Y-43589735D01*
X36265411Y-43631738D01*
X36271102Y-43641597D01*
X36273499Y-43647384D01*
X36276444Y-43658376D01*
X36276445Y-43658377D01*
X36300916Y-43693327D01*
X36301476Y-43694206D01*
X36305974Y-43701996D01*
X36322804Y-43731148D01*
X36355481Y-43758568D01*
X36356253Y-43759275D01*
X36825751Y-44228773D01*
X36828440Y-44231979D01*
X36845916Y-44256938D01*
X36846479Y-44257822D01*
X36867804Y-44294758D01*
X36900481Y-44322178D01*
X36901253Y-44322885D01*
X37305120Y-44726753D01*
X37305827Y-44727525D01*
X37316225Y-44739916D01*
X37333240Y-44760194D01*
X37370191Y-44781527D01*
X37371063Y-44782083D01*
X37378328Y-44787169D01*
X37396024Y-44799561D01*
X37399228Y-44802249D01*
X37513470Y-44916490D01*
X37520500Y-44933461D01*
X37520499Y-47333015D01*
X37513470Y-47349986D01*
X37511109Y-47352055D01*
X37417725Y-47423711D01*
X37417716Y-47423720D01*
X37321464Y-47549158D01*
X37321461Y-47549164D01*
X37260957Y-47695232D01*
X37260956Y-47695236D01*
X37240318Y-47852000D01*
X37260956Y-48008763D01*
X37260957Y-48008767D01*
X37321461Y-48154835D01*
X37321464Y-48154841D01*
X37417718Y-48280282D01*
X37543159Y-48376536D01*
X37543164Y-48376538D01*
X37689232Y-48437042D01*
X37689234Y-48437042D01*
X37689238Y-48437044D01*
X37846000Y-48457682D01*
X38002762Y-48437044D01*
X38148841Y-48376536D01*
X38274282Y-48280282D01*
X38370536Y-48154841D01*
X38431044Y-48008762D01*
X38451682Y-47852000D01*
X38431044Y-47695238D01*
X38408563Y-47640965D01*
X38370538Y-47549164D01*
X38370535Y-47549158D01*
X38328959Y-47494975D01*
X38274282Y-47423718D01*
X38274277Y-47423714D01*
X38274275Y-47423712D01*
X38180890Y-47352055D01*
X38171705Y-47336148D01*
X38171500Y-47333015D01*
X38171500Y-47000000D01*
X41595255Y-47000000D01*
X41614217Y-47301395D01*
X41614217Y-47301396D01*
X41670801Y-47598023D01*
X41670806Y-47598043D01*
X41764122Y-47885240D01*
X41764123Y-47885242D01*
X41892705Y-48158493D01*
X42054518Y-48413472D01*
X42054521Y-48413476D01*
X42071284Y-48433738D01*
X43014659Y-47490362D01*
X43043038Y-47552502D01*
X43164894Y-47723624D01*
X43316932Y-47868592D01*
X43493658Y-47982167D01*
X43507332Y-47987641D01*
X42568475Y-48926499D01*
X42711462Y-49030385D01*
X42711479Y-49030397D01*
X42976096Y-49175871D01*
X42976107Y-49175877D01*
X43256888Y-49287045D01*
X43256897Y-49287048D01*
X43549389Y-49362148D01*
X43849009Y-49400000D01*
X44150991Y-49400000D01*
X44450610Y-49362148D01*
X44743102Y-49287048D01*
X44743111Y-49287045D01*
X45023892Y-49175877D01*
X45023903Y-49175871D01*
X45288520Y-49030397D01*
X45288537Y-49030385D01*
X45431523Y-48926499D01*
X44489991Y-47984967D01*
X44597410Y-47929589D01*
X44762540Y-47799729D01*
X44900110Y-47640965D01*
X44986429Y-47491453D01*
X45928714Y-48433738D01*
X45945475Y-48413481D01*
X45945477Y-48413477D01*
X46107294Y-48158493D01*
X46235876Y-47885242D01*
X46235877Y-47885240D01*
X46329193Y-47598043D01*
X46329198Y-47598023D01*
X46385782Y-47301396D01*
X46385782Y-47301395D01*
X46404744Y-47000000D01*
X46385782Y-46698604D01*
X46385782Y-46698603D01*
X46329198Y-46401976D01*
X46329193Y-46401956D01*
X46235877Y-46114759D01*
X46235876Y-46114757D01*
X46107294Y-45841506D01*
X45945481Y-45586527D01*
X45945478Y-45586523D01*
X45928714Y-45566260D01*
X44985338Y-46509635D01*
X44956962Y-46447498D01*
X44835106Y-46276376D01*
X44683068Y-46131408D01*
X44506342Y-46017833D01*
X44492664Y-46012357D01*
X45431523Y-45073499D01*
X45288537Y-44969614D01*
X45288520Y-44969602D01*
X45023903Y-44824128D01*
X45023892Y-44824122D01*
X44743111Y-44712954D01*
X44743102Y-44712951D01*
X44450610Y-44637851D01*
X44150991Y-44600000D01*
X43849009Y-44600000D01*
X43549389Y-44637851D01*
X43256897Y-44712951D01*
X43256888Y-44712954D01*
X42976107Y-44824122D01*
X42976096Y-44824128D01*
X42711479Y-44969602D01*
X42711462Y-44969614D01*
X42568475Y-45073499D01*
X43510008Y-46015032D01*
X43402590Y-46070411D01*
X43237460Y-46200271D01*
X43099890Y-46359035D01*
X43013570Y-46508546D01*
X42071284Y-45566260D01*
X42054521Y-45586523D01*
X42054518Y-45586527D01*
X41892705Y-45841506D01*
X41764123Y-46114757D01*
X41764122Y-46114759D01*
X41670806Y-46401956D01*
X41670801Y-46401976D01*
X41614217Y-46698603D01*
X41614217Y-46698604D01*
X41595255Y-47000000D01*
X38171500Y-47000000D01*
X38171500Y-44803435D01*
X38171546Y-44802389D01*
X38175264Y-44759887D01*
X38175263Y-44759885D01*
X38164728Y-44720570D01*
X38164216Y-44718659D01*
X38163997Y-44717672D01*
X38156588Y-44675650D01*
X38150895Y-44665791D01*
X38148499Y-44660005D01*
X38145554Y-44649011D01*
X38133557Y-44631878D01*
X38121087Y-44614068D01*
X38120524Y-44613185D01*
X38099194Y-44576240D01*
X38066517Y-44548820D01*
X38065745Y-44548113D01*
X37932825Y-44415194D01*
X37925796Y-44398223D01*
X37932825Y-44381252D01*
X37946661Y-44374429D01*
X38002762Y-44367044D01*
X38148841Y-44306536D01*
X38274282Y-44210282D01*
X38370536Y-44084841D01*
X38431044Y-43938762D01*
X38451682Y-43782000D01*
X38431044Y-43625238D01*
X38428874Y-43620000D01*
X38370538Y-43479164D01*
X38370535Y-43479158D01*
X38360055Y-43465500D01*
X38274282Y-43353718D01*
X38148841Y-43257464D01*
X38148835Y-43257461D01*
X38002767Y-43196957D01*
X38002763Y-43196956D01*
X37910876Y-43184859D01*
X37846000Y-43176318D01*
X37845999Y-43176318D01*
X37729288Y-43191683D01*
X37711546Y-43186928D01*
X37709185Y-43184859D01*
X37358529Y-42834203D01*
X37351500Y-42817232D01*
X37351500Y-42766000D01*
X41050318Y-42766000D01*
X41070956Y-42922763D01*
X41070957Y-42922767D01*
X41131461Y-43068835D01*
X41131464Y-43068841D01*
X41227718Y-43194282D01*
X41353159Y-43290536D01*
X41353164Y-43290538D01*
X41499232Y-43351042D01*
X41499234Y-43351042D01*
X41499238Y-43351044D01*
X41656000Y-43371682D01*
X41812762Y-43351044D01*
X41958841Y-43290536D01*
X42084282Y-43194282D01*
X42101619Y-43171687D01*
X42155945Y-43100890D01*
X42171852Y-43091705D01*
X42174985Y-43091500D01*
X56497232Y-43091500D01*
X56514203Y-43098529D01*
X59703425Y-46287753D01*
X59704132Y-46288525D01*
X59731545Y-46321194D01*
X59768486Y-46342522D01*
X59769370Y-46343085D01*
X59804316Y-46367554D01*
X59815310Y-46370499D01*
X59821096Y-46372895D01*
X59830955Y-46378588D01*
X59872985Y-46385998D01*
X59873971Y-46386217D01*
X59915190Y-46397262D01*
X59915192Y-46397263D01*
X59915192Y-46397262D01*
X59915193Y-46397263D01*
X59920019Y-46396840D01*
X59957688Y-46393546D01*
X59958734Y-46393500D01*
X61203015Y-46393500D01*
X61219986Y-46400529D01*
X61222055Y-46402890D01*
X61293712Y-46496275D01*
X61293714Y-46496277D01*
X61293718Y-46496282D01*
X61419159Y-46592536D01*
X61419164Y-46592538D01*
X61565232Y-46653042D01*
X61565234Y-46653042D01*
X61565238Y-46653044D01*
X61722000Y-46673682D01*
X61878762Y-46653044D01*
X62024841Y-46592536D01*
X62150282Y-46496282D01*
X62246536Y-46370841D01*
X62307044Y-46224762D01*
X62327682Y-46068000D01*
X62307044Y-45911238D01*
X62302389Y-45900000D01*
X62246538Y-45765164D01*
X62246535Y-45765158D01*
X62228992Y-45742295D01*
X62150282Y-45639718D01*
X62024841Y-45543464D01*
X62024835Y-45543461D01*
X61878767Y-45482957D01*
X61878763Y-45482956D01*
X61800380Y-45472637D01*
X61722000Y-45462318D01*
X61721999Y-45462318D01*
X61565236Y-45482956D01*
X61565232Y-45482957D01*
X61419164Y-45543461D01*
X61419158Y-45543464D01*
X61293720Y-45639716D01*
X61293712Y-45639724D01*
X61222055Y-45733110D01*
X61206148Y-45742295D01*
X61203015Y-45742500D01*
X60088769Y-45742500D01*
X60071798Y-45735471D01*
X58836328Y-44500001D01*
X60686435Y-44500001D01*
X60706632Y-44679255D01*
X60766210Y-44849521D01*
X60825811Y-44944374D01*
X60862184Y-45002262D01*
X60989738Y-45129816D01*
X61142478Y-45225789D01*
X61312745Y-45285368D01*
X61447046Y-45300500D01*
X61447055Y-45300500D01*
X61536945Y-45300500D01*
X61536954Y-45300500D01*
X61671255Y-45285368D01*
X61841522Y-45225789D01*
X61994262Y-45129816D01*
X62121816Y-45002262D01*
X62217789Y-44849522D01*
X62277368Y-44679255D01*
X62297565Y-44500000D01*
X62277368Y-44320745D01*
X62217789Y-44150478D01*
X62121816Y-43997738D01*
X61994262Y-43870184D01*
X61994261Y-43870183D01*
X61841521Y-43774210D01*
X61671255Y-43714632D01*
X61536955Y-43699500D01*
X61536954Y-43699500D01*
X61447046Y-43699500D01*
X61447044Y-43699500D01*
X61312744Y-43714632D01*
X61142478Y-43774210D01*
X60989738Y-43870183D01*
X60862183Y-43997738D01*
X60766210Y-44150478D01*
X60706632Y-44320744D01*
X60686435Y-44499998D01*
X60686435Y-44500001D01*
X58836328Y-44500001D01*
X57336328Y-43000001D01*
X58582409Y-43000001D01*
X58602707Y-43180151D01*
X58662581Y-43351260D01*
X58662585Y-43351270D01*
X58758521Y-43503953D01*
X58759036Y-43504772D01*
X58887228Y-43632964D01*
X59040732Y-43729416D01*
X59211849Y-43789293D01*
X59371700Y-43807303D01*
X59391999Y-43809591D01*
X59392000Y-43809591D01*
X59392001Y-43809591D01*
X59410243Y-43807535D01*
X59572151Y-43789293D01*
X59743268Y-43729416D01*
X59896772Y-43632964D01*
X60024964Y-43504772D01*
X60121416Y-43351268D01*
X60181293Y-43180151D01*
X60201591Y-43000000D01*
X60181293Y-42819849D01*
X60121416Y-42648732D01*
X60024964Y-42495228D01*
X59896772Y-42367036D01*
X59878702Y-42355682D01*
X59743270Y-42270585D01*
X59743260Y-42270581D01*
X59572151Y-42210707D01*
X59392001Y-42190409D01*
X59391999Y-42190409D01*
X59211848Y-42210707D01*
X59040739Y-42270581D01*
X59040729Y-42270585D01*
X58887230Y-42367034D01*
X58759034Y-42495230D01*
X58662585Y-42648729D01*
X58662581Y-42648739D01*
X58602707Y-42819848D01*
X58582409Y-42999998D01*
X58582409Y-43000001D01*
X57336328Y-43000001D01*
X56882578Y-42546251D01*
X56881871Y-42545479D01*
X56854453Y-42512804D01*
X56817516Y-42491479D01*
X56816632Y-42490916D01*
X56796944Y-42477131D01*
X56781684Y-42466446D01*
X56781683Y-42466445D01*
X56781682Y-42466445D01*
X56781681Y-42466444D01*
X56770689Y-42463499D01*
X56764902Y-42461102D01*
X56755043Y-42455411D01*
X56713040Y-42448004D01*
X56712017Y-42447778D01*
X56670809Y-42436736D01*
X56670806Y-42436736D01*
X56628304Y-42440454D01*
X56627258Y-42440500D01*
X42174985Y-42440500D01*
X42158014Y-42433471D01*
X42155945Y-42431110D01*
X42084287Y-42337724D01*
X42084285Y-42337722D01*
X42084282Y-42337718D01*
X41958841Y-42241464D01*
X41958835Y-42241461D01*
X41812767Y-42180957D01*
X41812763Y-42180956D01*
X41656000Y-42160318D01*
X41499236Y-42180956D01*
X41499232Y-42180957D01*
X41353164Y-42241461D01*
X41353158Y-42241464D01*
X41227720Y-42337716D01*
X41227716Y-42337720D01*
X41131464Y-42463158D01*
X41131461Y-42463164D01*
X41070957Y-42609232D01*
X41070956Y-42609236D01*
X41050318Y-42766000D01*
X37351500Y-42766000D01*
X37351500Y-41741416D01*
X37358529Y-41724445D01*
X37375500Y-41717416D01*
X37390107Y-41722374D01*
X37447659Y-41766536D01*
X37447664Y-41766538D01*
X37593732Y-41827042D01*
X37593734Y-41827042D01*
X37593738Y-41827044D01*
X37750500Y-41847682D01*
X37907262Y-41827044D01*
X38053341Y-41766536D01*
X38074891Y-41750000D01*
X45876318Y-41750000D01*
X45896956Y-41906763D01*
X45896957Y-41906767D01*
X45957461Y-42052835D01*
X45957464Y-42052841D01*
X46053718Y-42178282D01*
X46179159Y-42274536D01*
X46179164Y-42274538D01*
X46325232Y-42335042D01*
X46325234Y-42335042D01*
X46325238Y-42335044D01*
X46482000Y-42355682D01*
X46638762Y-42335044D01*
X46784841Y-42274536D01*
X46910282Y-42178282D01*
X46964171Y-42108051D01*
X46980078Y-42098867D01*
X46997821Y-42103621D01*
X47002249Y-42108049D01*
X47065769Y-42190830D01*
X47191210Y-42287084D01*
X47191215Y-42287086D01*
X47337283Y-42347590D01*
X47337285Y-42347590D01*
X47337289Y-42347592D01*
X47494051Y-42368230D01*
X47650813Y-42347592D01*
X47796892Y-42287084D01*
X47922333Y-42190830D01*
X48018587Y-42065389D01*
X48079095Y-41919310D01*
X48099733Y-41762548D01*
X48079095Y-41605786D01*
X48073897Y-41593238D01*
X48018589Y-41459712D01*
X48018586Y-41459706D01*
X48008962Y-41447164D01*
X47922333Y-41334266D01*
X47922328Y-41334262D01*
X47922326Y-41334260D01*
X47828941Y-41262603D01*
X47819756Y-41246696D01*
X47819551Y-41243563D01*
X47819551Y-41000001D01*
X58582409Y-41000001D01*
X58602707Y-41180151D01*
X58656913Y-41335063D01*
X58662584Y-41351268D01*
X58759036Y-41504772D01*
X58887228Y-41632964D01*
X59040732Y-41729416D01*
X59211849Y-41789293D01*
X59371701Y-41807303D01*
X59391999Y-41809591D01*
X59392000Y-41809591D01*
X59392001Y-41809591D01*
X59410243Y-41807535D01*
X59572151Y-41789293D01*
X59743268Y-41729416D01*
X59896772Y-41632964D01*
X60024964Y-41504772D01*
X60121416Y-41351268D01*
X60181293Y-41180151D01*
X60201591Y-41000000D01*
X60181293Y-40819849D01*
X60121416Y-40648732D01*
X60024964Y-40495228D01*
X59896772Y-40367036D01*
X59827774Y-40323682D01*
X59743270Y-40270585D01*
X59743260Y-40270581D01*
X59572151Y-40210707D01*
X59392001Y-40190409D01*
X59391999Y-40190409D01*
X59211848Y-40210707D01*
X59040739Y-40270581D01*
X59040729Y-40270585D01*
X58887230Y-40367034D01*
X58759034Y-40495230D01*
X58662585Y-40648729D01*
X58662581Y-40648739D01*
X58602707Y-40819848D01*
X58582409Y-40999998D01*
X58582409Y-41000001D01*
X47819551Y-41000001D01*
X47819551Y-40663113D01*
X47826580Y-40646142D01*
X48472722Y-40000000D01*
X63144341Y-40000000D01*
X63164937Y-40235409D01*
X63226096Y-40463662D01*
X63325961Y-40677822D01*
X63325962Y-40677823D01*
X63325965Y-40677829D01*
X63461505Y-40871401D01*
X63628599Y-41038495D01*
X63822171Y-41174035D01*
X63822176Y-41174037D01*
X63822177Y-41174038D01*
X63944364Y-41231015D01*
X64036337Y-41273903D01*
X64264592Y-41335063D01*
X64441034Y-41350500D01*
X64441042Y-41350500D01*
X64558958Y-41350500D01*
X64558966Y-41350500D01*
X64735408Y-41335063D01*
X64963663Y-41273903D01*
X65177829Y-41174035D01*
X65371401Y-41038495D01*
X65538495Y-40871401D01*
X65674035Y-40677830D01*
X65773903Y-40463663D01*
X65835063Y-40235408D01*
X65855659Y-40000000D01*
X65835063Y-39764592D01*
X65773903Y-39536337D01*
X65759184Y-39504772D01*
X65674038Y-39322177D01*
X65674037Y-39322176D01*
X65674035Y-39322171D01*
X65538495Y-39128599D01*
X65371401Y-38961505D01*
X65177829Y-38825965D01*
X65177825Y-38825963D01*
X65177822Y-38825961D01*
X64963662Y-38726096D01*
X64735408Y-38664937D01*
X64735410Y-38664937D01*
X64700119Y-38661849D01*
X64558966Y-38649500D01*
X64441034Y-38649500D01*
X64299880Y-38661849D01*
X64264590Y-38664937D01*
X64036337Y-38726096D01*
X63822177Y-38825961D01*
X63628598Y-38961505D01*
X63461505Y-39128598D01*
X63325961Y-39322176D01*
X63226096Y-39536337D01*
X63164937Y-39764590D01*
X63144341Y-40000000D01*
X48472722Y-40000000D01*
X49472722Y-39000001D01*
X58582409Y-39000001D01*
X58602707Y-39180151D01*
X58652404Y-39322177D01*
X58662584Y-39351268D01*
X58759036Y-39504772D01*
X58887228Y-39632964D01*
X59040732Y-39729416D01*
X59211849Y-39789293D01*
X59371701Y-39807303D01*
X59391999Y-39809591D01*
X59392000Y-39809591D01*
X59392001Y-39809591D01*
X59410243Y-39807535D01*
X59572151Y-39789293D01*
X59743268Y-39729416D01*
X59896772Y-39632964D01*
X60024964Y-39504772D01*
X60121416Y-39351268D01*
X60181293Y-39180151D01*
X60201591Y-39000000D01*
X60181293Y-38819849D01*
X60121416Y-38648732D01*
X60024964Y-38495228D01*
X59896772Y-38367036D01*
X59743268Y-38270584D01*
X59743264Y-38270582D01*
X59743260Y-38270581D01*
X59572151Y-38210707D01*
X59392001Y-38190409D01*
X59391999Y-38190409D01*
X59211848Y-38210707D01*
X59040739Y-38270581D01*
X59040729Y-38270585D01*
X58887230Y-38367034D01*
X58759034Y-38495230D01*
X58662585Y-38648729D01*
X58662581Y-38648739D01*
X58602707Y-38819848D01*
X58582409Y-38999998D01*
X58582409Y-39000001D01*
X49472722Y-39000001D01*
X49918194Y-38554529D01*
X49935165Y-38547500D01*
X53763258Y-38547500D01*
X53764304Y-38547546D01*
X53806807Y-38551264D01*
X53848039Y-38540215D01*
X53849016Y-38539998D01*
X53891045Y-38532588D01*
X53900897Y-38526898D01*
X53906686Y-38524500D01*
X53917684Y-38521554D01*
X53952632Y-38497081D01*
X53953491Y-38496534D01*
X53990455Y-38475194D01*
X54017888Y-38442498D01*
X54018581Y-38441744D01*
X54189744Y-38270581D01*
X54366186Y-38094138D01*
X54383156Y-38087110D01*
X54386273Y-38087314D01*
X54503000Y-38102682D01*
X54659762Y-38082044D01*
X54805841Y-38021536D01*
X54931282Y-37925282D01*
X55027536Y-37799841D01*
X55044327Y-37759305D01*
X59127668Y-37759305D01*
X59211959Y-37788800D01*
X59211962Y-37788801D01*
X59391999Y-37809087D01*
X59392001Y-37809087D01*
X59572037Y-37788801D01*
X59572040Y-37788800D01*
X59656330Y-37759305D01*
X59391327Y-37494302D01*
X59387589Y-37496800D01*
X59387029Y-37497031D01*
X59384971Y-37502002D01*
X59127668Y-37759305D01*
X55044327Y-37759305D01*
X55088044Y-37653762D01*
X55108682Y-37497000D01*
X55088044Y-37340238D01*
X55076377Y-37312072D01*
X55028898Y-37197447D01*
X55027536Y-37194159D01*
X54931282Y-37068718D01*
X54841727Y-37000000D01*
X58582913Y-37000000D01*
X58603198Y-37180037D01*
X58603199Y-37180040D01*
X58632693Y-37264330D01*
X58867721Y-37029302D01*
X59038372Y-37029302D01*
X59067047Y-37142538D01*
X59130936Y-37240327D01*
X59223115Y-37312072D01*
X59333595Y-37350000D01*
X59421005Y-37350000D01*
X59507216Y-37335614D01*
X59609947Y-37280019D01*
X59689060Y-37194079D01*
X59735982Y-37087108D01*
X59743256Y-36999327D01*
X59886302Y-36999327D01*
X60151305Y-37264330D01*
X60180800Y-37180040D01*
X60180801Y-37180037D01*
X60201087Y-37000000D01*
X60201087Y-36999998D01*
X60180801Y-36819962D01*
X60180800Y-36819959D01*
X60151305Y-36735668D01*
X59894003Y-36992971D01*
X59889031Y-36995030D01*
X59888800Y-36995589D01*
X59886302Y-36999327D01*
X59743256Y-36999327D01*
X59745628Y-36970698D01*
X59716953Y-36857462D01*
X59653064Y-36759673D01*
X59560885Y-36687928D01*
X59450405Y-36650000D01*
X59362995Y-36650000D01*
X59276784Y-36664386D01*
X59174053Y-36719981D01*
X59094940Y-36805921D01*
X59048018Y-36912892D01*
X59038372Y-37029302D01*
X58867721Y-37029302D01*
X58897024Y-36999999D01*
X58632693Y-36735668D01*
X58603198Y-36819962D01*
X58582913Y-36999998D01*
X58582913Y-37000000D01*
X54841727Y-37000000D01*
X54805841Y-36972464D01*
X54805835Y-36972461D01*
X54659767Y-36911957D01*
X54659763Y-36911956D01*
X54581380Y-36901637D01*
X54503000Y-36891318D01*
X54502999Y-36891318D01*
X54346236Y-36911956D01*
X54346232Y-36911957D01*
X54200164Y-36972461D01*
X54200158Y-36972464D01*
X54074720Y-37068716D01*
X54074716Y-37068720D01*
X53978464Y-37194158D01*
X53978461Y-37194164D01*
X53917957Y-37340232D01*
X53917956Y-37340236D01*
X53897318Y-37497000D01*
X53912683Y-37613709D01*
X53907928Y-37631452D01*
X53905859Y-37633812D01*
X53650203Y-37889470D01*
X53633232Y-37896500D01*
X51192034Y-37896500D01*
X51175063Y-37889471D01*
X51168034Y-37872500D01*
X51172993Y-37857890D01*
X51174805Y-37855529D01*
X51217536Y-37799841D01*
X51278044Y-37653762D01*
X51298682Y-37497000D01*
X51278044Y-37340238D01*
X51266377Y-37312072D01*
X51218898Y-37197447D01*
X51217536Y-37194159D01*
X51121282Y-37068718D01*
X50995841Y-36972464D01*
X50995835Y-36972461D01*
X50849767Y-36911957D01*
X50849763Y-36911956D01*
X50693000Y-36891318D01*
X50536236Y-36911956D01*
X50536232Y-36911957D01*
X50390164Y-36972461D01*
X50390158Y-36972464D01*
X50264720Y-37068716D01*
X50264712Y-37068724D01*
X50193055Y-37162110D01*
X50177148Y-37171295D01*
X50174015Y-37171500D01*
X49893730Y-37171500D01*
X49892684Y-37171454D01*
X49850193Y-37167737D01*
X49850189Y-37167737D01*
X49808992Y-37178776D01*
X49807970Y-37179002D01*
X49765955Y-37186411D01*
X49756092Y-37192104D01*
X49750310Y-37194499D01*
X49739316Y-37197446D01*
X49739314Y-37197447D01*
X49704371Y-37221913D01*
X49703489Y-37222476D01*
X49666547Y-37243803D01*
X49666544Y-37243806D01*
X49639130Y-37276475D01*
X49638423Y-37277247D01*
X46262251Y-40653420D01*
X46261480Y-40654127D01*
X46245216Y-40667775D01*
X46233235Y-40677829D01*
X46228805Y-40681546D01*
X46228801Y-40681550D01*
X46207476Y-40718488D01*
X46206913Y-40719370D01*
X46182446Y-40754314D01*
X46182445Y-40754317D01*
X46179499Y-40765311D01*
X46177102Y-40771096D01*
X46171412Y-40780951D01*
X46171411Y-40780955D01*
X46164004Y-40822959D01*
X46163778Y-40823981D01*
X46152736Y-40865189D01*
X46152736Y-40865193D01*
X46156454Y-40907694D01*
X46156500Y-40908740D01*
X46156500Y-41231015D01*
X46149471Y-41247986D01*
X46147110Y-41250055D01*
X46053724Y-41321712D01*
X46053716Y-41321720D01*
X45957464Y-41447158D01*
X45957461Y-41447164D01*
X45896957Y-41593232D01*
X45896956Y-41593236D01*
X45876318Y-41750000D01*
X38074891Y-41750000D01*
X38178782Y-41670282D01*
X38275036Y-41544841D01*
X38335544Y-41398762D01*
X38356182Y-41242000D01*
X38335544Y-41085238D01*
X38316295Y-41038768D01*
X38275038Y-40939164D01*
X38275035Y-40939158D01*
X38178782Y-40813718D01*
X38178777Y-40813714D01*
X38178775Y-40813712D01*
X38085390Y-40742055D01*
X38076205Y-40726148D01*
X38076000Y-40723015D01*
X38076000Y-38183059D01*
X38083029Y-38166088D01*
X40134589Y-36114529D01*
X40151560Y-36107500D01*
X42915015Y-36107500D01*
X42931986Y-36114529D01*
X42934055Y-36116890D01*
X43005712Y-36210275D01*
X43005714Y-36210277D01*
X43005718Y-36210282D01*
X43131159Y-36306536D01*
X43131164Y-36306538D01*
X43277232Y-36367042D01*
X43277234Y-36367042D01*
X43277238Y-36367044D01*
X43434000Y-36387682D01*
X43590762Y-36367044D01*
X43736841Y-36306536D01*
X43862282Y-36210282D01*
X43958536Y-36084841D01*
X44019044Y-35938762D01*
X44039682Y-35782000D01*
X44019044Y-35625238D01*
X43985378Y-35543962D01*
X43958538Y-35479164D01*
X43958535Y-35479158D01*
X43940992Y-35456295D01*
X43862282Y-35353718D01*
X43789448Y-35297830D01*
X43780264Y-35281924D01*
X43785018Y-35264181D01*
X43789445Y-35259753D01*
X43862282Y-35203865D01*
X43958536Y-35078424D01*
X44019044Y-34932345D01*
X44039682Y-34775583D01*
X44019044Y-34618821D01*
X44004091Y-34582722D01*
X43958538Y-34472747D01*
X43958535Y-34472741D01*
X43940992Y-34449878D01*
X43862282Y-34347301D01*
X43770977Y-34277240D01*
X43761793Y-34261334D01*
X43766547Y-34243591D01*
X43770974Y-34239163D01*
X43815782Y-34204782D01*
X43912036Y-34079341D01*
X43972544Y-33933262D01*
X43993182Y-33776500D01*
X43972544Y-33619738D01*
X43967026Y-33606417D01*
X43919767Y-33492323D01*
X43912036Y-33473659D01*
X43867876Y-33416109D01*
X43863123Y-33398367D01*
X43872308Y-33382459D01*
X43886918Y-33377500D01*
X44382098Y-33377500D01*
X45499500Y-33377500D01*
X45516471Y-33384529D01*
X45523500Y-33401500D01*
X45523499Y-37235455D01*
X45516470Y-37252426D01*
X43508426Y-39260471D01*
X43491455Y-39267500D01*
X42063474Y-39267500D01*
X42048864Y-39262541D01*
X42046166Y-39260471D01*
X41958841Y-39193464D01*
X41958835Y-39193461D01*
X41812767Y-39132957D01*
X41812763Y-39132956D01*
X41656000Y-39112318D01*
X41499236Y-39132956D01*
X41499232Y-39132957D01*
X41353164Y-39193461D01*
X41353158Y-39193464D01*
X41227720Y-39289716D01*
X41227716Y-39289720D01*
X41131464Y-39415158D01*
X41131461Y-39415164D01*
X41070957Y-39561232D01*
X41070956Y-39561236D01*
X41050318Y-39718000D01*
X41070956Y-39874763D01*
X41070957Y-39874767D01*
X41131461Y-40020835D01*
X41131464Y-40020841D01*
X41227718Y-40146282D01*
X41353159Y-40242536D01*
X41353164Y-40242538D01*
X41499232Y-40303042D01*
X41499234Y-40303042D01*
X41499238Y-40303044D01*
X41656000Y-40323682D01*
X41812762Y-40303044D01*
X41958841Y-40242536D01*
X42048864Y-40173458D01*
X42063474Y-40168500D01*
X43662025Y-40168500D01*
X43663359Y-40168574D01*
X43705035Y-40173270D01*
X43763273Y-40162249D01*
X43763653Y-40162184D01*
X43822287Y-40153348D01*
X43827175Y-40150993D01*
X43833129Y-40149033D01*
X43838472Y-40148023D01*
X43890897Y-40120314D01*
X43891267Y-40120128D01*
X43944642Y-40094425D01*
X43948626Y-40090727D01*
X43953733Y-40087105D01*
X43958538Y-40084566D01*
X44000470Y-40042632D01*
X44000735Y-40042377D01*
X44044194Y-40002055D01*
X44046910Y-39997348D01*
X44050718Y-39992384D01*
X46274190Y-37768911D01*
X46275171Y-37768033D01*
X46307970Y-37741879D01*
X46341370Y-37692888D01*
X46341586Y-37692583D01*
X46376793Y-37644882D01*
X46378585Y-37639760D01*
X46381407Y-37634166D01*
X46384472Y-37629673D01*
X46401944Y-37573027D01*
X46402083Y-37572607D01*
X46403011Y-37569952D01*
X46421646Y-37516700D01*
X46421849Y-37511267D01*
X46422897Y-37505097D01*
X46424500Y-37499902D01*
X46424500Y-37440644D01*
X46424507Y-37440227D01*
X46426724Y-37380990D01*
X46425318Y-37375742D01*
X46424500Y-37369530D01*
X46424500Y-36240693D01*
X59127668Y-36240693D01*
X59391999Y-36505024D01*
X59656330Y-36240693D01*
X59572040Y-36211199D01*
X59572037Y-36211198D01*
X59392001Y-36190913D01*
X59391999Y-36190913D01*
X59211962Y-36211198D01*
X59127668Y-36240693D01*
X46424500Y-36240693D01*
X46424500Y-35500001D01*
X60686435Y-35500001D01*
X60706632Y-35679255D01*
X60766210Y-35849521D01*
X60848196Y-35980000D01*
X60862184Y-36002262D01*
X60989738Y-36129816D01*
X61142478Y-36225789D01*
X61312745Y-36285368D01*
X61447046Y-36300500D01*
X61447055Y-36300500D01*
X61536945Y-36300500D01*
X61536954Y-36300500D01*
X61671255Y-36285368D01*
X61841522Y-36225789D01*
X61994262Y-36129816D01*
X62121816Y-36002262D01*
X62217789Y-35849522D01*
X62277368Y-35679255D01*
X62297565Y-35500000D01*
X62277368Y-35320745D01*
X62217789Y-35150478D01*
X62121816Y-34997738D01*
X61994262Y-34870184D01*
X61994261Y-34870183D01*
X61841521Y-34774210D01*
X61671255Y-34714632D01*
X61536955Y-34699500D01*
X61536954Y-34699500D01*
X61447046Y-34699500D01*
X61447044Y-34699500D01*
X61312744Y-34714632D01*
X61142478Y-34774210D01*
X60989738Y-34870183D01*
X60862183Y-34997738D01*
X60766210Y-35150478D01*
X60706632Y-35320744D01*
X60686435Y-35499998D01*
X60686435Y-35500001D01*
X46424500Y-35500001D01*
X46424500Y-33401500D01*
X46431529Y-33384529D01*
X46448500Y-33377500D01*
X53806372Y-33377500D01*
X53823343Y-33384529D01*
X54869000Y-34430186D01*
X54869897Y-34431190D01*
X54896038Y-34463969D01*
X54896039Y-34463970D01*
X54945014Y-34497361D01*
X54945348Y-34497597D01*
X54993036Y-34532793D01*
X54993037Y-34532793D01*
X54993038Y-34532794D01*
X54998160Y-34534586D01*
X55003754Y-34537410D01*
X55008245Y-34540472D01*
X55008244Y-34540472D01*
X55064887Y-34557943D01*
X55065314Y-34558084D01*
X55084552Y-34564815D01*
X55121219Y-34577646D01*
X55121218Y-34577646D01*
X55121481Y-34577655D01*
X55126646Y-34577848D01*
X55132820Y-34578897D01*
X55138016Y-34580500D01*
X55197273Y-34580500D01*
X55197691Y-34580507D01*
X55256928Y-34582724D01*
X55260905Y-34581658D01*
X55262176Y-34581318D01*
X55268388Y-34580500D01*
X56488526Y-34580500D01*
X56503135Y-34585458D01*
X56593159Y-34654536D01*
X56593164Y-34654538D01*
X56739232Y-34715042D01*
X56739234Y-34715042D01*
X56739238Y-34715044D01*
X56896000Y-34735682D01*
X57052762Y-34715044D01*
X57198841Y-34654536D01*
X57324282Y-34558282D01*
X57420536Y-34432841D01*
X57481044Y-34286762D01*
X57501682Y-34130000D01*
X57481044Y-33973238D01*
X57464487Y-33933267D01*
X57420538Y-33827164D01*
X57420535Y-33827158D01*
X57345793Y-33729752D01*
X61448500Y-33729752D01*
X61460132Y-33788229D01*
X61460132Y-33788230D01*
X61460133Y-33788231D01*
X61504448Y-33854552D01*
X61570769Y-33898867D01*
X61629252Y-33910500D01*
X61629256Y-33910500D01*
X63368744Y-33910500D01*
X63368748Y-33910500D01*
X63427231Y-33898867D01*
X63493552Y-33854552D01*
X63537867Y-33788231D01*
X63549500Y-33729748D01*
X63549500Y-32860004D01*
X63983417Y-32860004D01*
X64003698Y-33065930D01*
X64028878Y-33148938D01*
X64063768Y-33263954D01*
X64161315Y-33446450D01*
X64161319Y-33446454D01*
X64161321Y-33446458D01*
X64292582Y-33606401D01*
X64292585Y-33606404D01*
X64292590Y-33606410D01*
X64292595Y-33606414D01*
X64292598Y-33606417D01*
X64452541Y-33737678D01*
X64452550Y-33737685D01*
X64635046Y-33835232D01*
X64823574Y-33892420D01*
X64833069Y-33895301D01*
X65038995Y-33915583D01*
X65039000Y-33915583D01*
X65039005Y-33915583D01*
X65244930Y-33895301D01*
X65244932Y-33895300D01*
X65244934Y-33895300D01*
X65442954Y-33835232D01*
X65625450Y-33737685D01*
X65785410Y-33606410D01*
X65916685Y-33446450D01*
X66014232Y-33263954D01*
X66074300Y-33065934D01*
X66074300Y-33065932D01*
X66074301Y-33065930D01*
X66094583Y-32860004D01*
X66094583Y-32859995D01*
X66074301Y-32654069D01*
X66071420Y-32644574D01*
X66014232Y-32456046D01*
X65916685Y-32273550D01*
X65916678Y-32273541D01*
X65785417Y-32113598D01*
X65785414Y-32113595D01*
X65785410Y-32113590D01*
X65785404Y-32113585D01*
X65785401Y-32113582D01*
X65625458Y-31982321D01*
X65625454Y-31982319D01*
X65625450Y-31982315D01*
X65442954Y-31884768D01*
X65327938Y-31849878D01*
X65244930Y-31824698D01*
X65039005Y-31804417D01*
X65038995Y-31804417D01*
X64833069Y-31824698D01*
X64718050Y-31859589D01*
X64635046Y-31884768D01*
X64635042Y-31884769D01*
X64635042Y-31884770D01*
X64452552Y-31982314D01*
X64452541Y-31982321D01*
X64292598Y-32113582D01*
X64292582Y-32113598D01*
X64161321Y-32273541D01*
X64161314Y-32273552D01*
X64104234Y-32380341D01*
X64063768Y-32456046D01*
X64038589Y-32539050D01*
X64003698Y-32654069D01*
X63983417Y-32859995D01*
X63983417Y-32860004D01*
X63549500Y-32860004D01*
X63549500Y-31990252D01*
X63537867Y-31931769D01*
X63493552Y-31865448D01*
X63427231Y-31821133D01*
X63427230Y-31821132D01*
X63427229Y-31821132D01*
X63368752Y-31809500D01*
X63368748Y-31809500D01*
X61629252Y-31809500D01*
X61629247Y-31809500D01*
X61570770Y-31821132D01*
X61504450Y-31865446D01*
X61504446Y-31865450D01*
X61460132Y-31931770D01*
X61448500Y-31990247D01*
X61448500Y-33729752D01*
X57345793Y-33729752D01*
X57324282Y-33701718D01*
X57198841Y-33605464D01*
X57198835Y-33605461D01*
X57052767Y-33544957D01*
X57052763Y-33544956D01*
X56896000Y-33524318D01*
X56739236Y-33544956D01*
X56739232Y-33544957D01*
X56593164Y-33605461D01*
X56593158Y-33605464D01*
X56522727Y-33659508D01*
X56505834Y-33672471D01*
X56503136Y-33674541D01*
X56488526Y-33679500D01*
X55402464Y-33679500D01*
X55385493Y-33672471D01*
X54700381Y-32987359D01*
X54693352Y-32970388D01*
X54700381Y-32953417D01*
X54714217Y-32946594D01*
X54786762Y-32937044D01*
X54932841Y-32876536D01*
X55058282Y-32780282D01*
X55154536Y-32654841D01*
X55215044Y-32508762D01*
X55235682Y-32352000D01*
X55215044Y-32195238D01*
X55207712Y-32177538D01*
X55154538Y-32049164D01*
X55154535Y-32049158D01*
X55142627Y-32033639D01*
X55058282Y-31923718D01*
X54932841Y-31827464D01*
X54932835Y-31827461D01*
X54786767Y-31766957D01*
X54786763Y-31766956D01*
X54630000Y-31746318D01*
X54473236Y-31766956D01*
X54473232Y-31766957D01*
X54327164Y-31827461D01*
X54327158Y-31827464D01*
X54201720Y-31923716D01*
X54201712Y-31923724D01*
X54130055Y-32017110D01*
X54114148Y-32026295D01*
X54111015Y-32026500D01*
X48910442Y-32026500D01*
X48893471Y-32019471D01*
X47736251Y-30862251D01*
X47735544Y-30861479D01*
X47708126Y-30828804D01*
X47671189Y-30807479D01*
X47670305Y-30806916D01*
X47650617Y-30793131D01*
X47635357Y-30782446D01*
X47635356Y-30782445D01*
X47635355Y-30782445D01*
X47635354Y-30782444D01*
X47624362Y-30779499D01*
X47618575Y-30777102D01*
X47608716Y-30771411D01*
X47566713Y-30764004D01*
X47565690Y-30763778D01*
X47524482Y-30752736D01*
X47524479Y-30752736D01*
X47481977Y-30756454D01*
X47480931Y-30756500D01*
X42737421Y-30756500D01*
X42736375Y-30756454D01*
X42693872Y-30752736D01*
X42693868Y-30752736D01*
X42652660Y-30763778D01*
X42651638Y-30764004D01*
X42609634Y-30771411D01*
X42609630Y-30771412D01*
X42599775Y-30777102D01*
X42593990Y-30779499D01*
X42582996Y-30782445D01*
X42582993Y-30782446D01*
X42548049Y-30806913D01*
X42547167Y-30807476D01*
X42510226Y-30828803D01*
X42510225Y-30828804D01*
X42482804Y-30861481D01*
X42482097Y-30862253D01*
X42354123Y-30990228D01*
X42337152Y-30997257D01*
X42334019Y-30997052D01*
X42282185Y-30990228D01*
X42217310Y-30981687D01*
X42060546Y-31002325D01*
X42060542Y-31002326D01*
X41914474Y-31062830D01*
X41914468Y-31062833D01*
X41789030Y-31159085D01*
X41789026Y-31159089D01*
X41692774Y-31284527D01*
X41692771Y-31284533D01*
X41632267Y-31430601D01*
X41632266Y-31430605D01*
X41611628Y-31587369D01*
X41632266Y-31744132D01*
X41632267Y-31744136D01*
X41692771Y-31890204D01*
X41692777Y-31890215D01*
X41767726Y-31987890D01*
X41772481Y-32005633D01*
X41763296Y-32021540D01*
X41748686Y-32026500D01*
X40664366Y-32026500D01*
X40647395Y-32019471D01*
X39934028Y-31306104D01*
X39926999Y-31289133D01*
X39927202Y-31286017D01*
X39942571Y-31169291D01*
X39921933Y-31012529D01*
X39917706Y-31002325D01*
X39861427Y-30866455D01*
X39861424Y-30866449D01*
X39765171Y-30741009D01*
X39639730Y-30644755D01*
X39639724Y-30644752D01*
X39493656Y-30584248D01*
X39493652Y-30584247D01*
X39336889Y-30563609D01*
X39180125Y-30584247D01*
X39180121Y-30584248D01*
X39034053Y-30644752D01*
X39034047Y-30644755D01*
X38908609Y-30741007D01*
X38908605Y-30741011D01*
X38812353Y-30866449D01*
X38812350Y-30866455D01*
X38751846Y-31012523D01*
X38751845Y-31012527D01*
X38731207Y-31169290D01*
X38751845Y-31326054D01*
X38751846Y-31326058D01*
X38812350Y-31472126D01*
X38812353Y-31472132D01*
X38908607Y-31597573D01*
X39034048Y-31693827D01*
X39034053Y-31693829D01*
X39180121Y-31754333D01*
X39180123Y-31754333D01*
X39180127Y-31754335D01*
X39336889Y-31774973D01*
X39453600Y-31759606D01*
X39471341Y-31764360D01*
X39473702Y-31766430D01*
X40142801Y-32435529D01*
X40149830Y-32452500D01*
X40142801Y-32469471D01*
X40125830Y-32476500D01*
X39125545Y-32476500D01*
X39108574Y-32469471D01*
X38673216Y-32034112D01*
X38672319Y-32033108D01*
X38646179Y-32000330D01*
X38646178Y-32000329D01*
X38597202Y-31966937D01*
X38596859Y-31966694D01*
X38549182Y-31931507D01*
X38549179Y-31931505D01*
X38544059Y-31929714D01*
X38538465Y-31926890D01*
X38533975Y-31923829D01*
X38533973Y-31923827D01*
X38477328Y-31906355D01*
X38476902Y-31906214D01*
X38421000Y-31886654D01*
X38420996Y-31886653D01*
X38415567Y-31886450D01*
X38409394Y-31885401D01*
X38404202Y-31883800D01*
X38344945Y-31883800D01*
X38344526Y-31883792D01*
X38288732Y-31881704D01*
X38285291Y-31881576D01*
X38285290Y-31881576D01*
X38285288Y-31881576D01*
X38285284Y-31881577D01*
X38280042Y-31882982D01*
X38273830Y-31883800D01*
X38243078Y-31883800D01*
X38228468Y-31878841D01*
X38211016Y-31865450D01*
X38138445Y-31809764D01*
X38138439Y-31809761D01*
X37992371Y-31749257D01*
X37992367Y-31749256D01*
X37913984Y-31738937D01*
X37835604Y-31728618D01*
X37835603Y-31728618D01*
X37678840Y-31749256D01*
X37678836Y-31749257D01*
X37532768Y-31809761D01*
X37532762Y-31809764D01*
X37407324Y-31906016D01*
X37407320Y-31906020D01*
X37311068Y-32031458D01*
X37311065Y-32031464D01*
X37250561Y-32177532D01*
X37250560Y-32177537D01*
X37235748Y-32290036D01*
X37228924Y-32303874D01*
X36114330Y-33418471D01*
X36097359Y-33425500D01*
X33935474Y-33425500D01*
X33920864Y-33420541D01*
X33918166Y-33418471D01*
X33830841Y-33351464D01*
X33830835Y-33351461D01*
X33684767Y-33290957D01*
X33684763Y-33290956D01*
X33528000Y-33270318D01*
X33371236Y-33290956D01*
X33371232Y-33290957D01*
X33225164Y-33351461D01*
X33225158Y-33351464D01*
X33099720Y-33447716D01*
X33099716Y-33447720D01*
X33003464Y-33573158D01*
X33003461Y-33573164D01*
X32942957Y-33719232D01*
X32942956Y-33719236D01*
X32922318Y-33875999D01*
X32922318Y-33876000D01*
X20000500Y-33876000D01*
X20000500Y-31000527D01*
X20000546Y-30999481D01*
X20004479Y-30954524D01*
X20017723Y-30820057D01*
X20018416Y-30816244D01*
X20038378Y-30741744D01*
X20038422Y-30741589D01*
X20068746Y-30641623D01*
X20069952Y-30638473D01*
X20104988Y-30563339D01*
X20105237Y-30562841D01*
X20152189Y-30475001D01*
X20152920Y-30473811D01*
X20202101Y-30403574D01*
X20202615Y-30402896D01*
X20264684Y-30327264D01*
X20265434Y-30326439D01*
X20326439Y-30265434D01*
X20327264Y-30264684D01*
X20402896Y-30202615D01*
X20403574Y-30202101D01*
X20473811Y-30152920D01*
X20475001Y-30152189D01*
X20562841Y-30105237D01*
X20563339Y-30104988D01*
X20638473Y-30069952D01*
X20641623Y-30068746D01*
X20741589Y-30038422D01*
X20741744Y-30038378D01*
X20816244Y-30018416D01*
X20820057Y-30017723D01*
X20954524Y-30004479D01*
X20999482Y-30000546D01*
X21000528Y-30000500D01*
X65999472Y-30000500D01*
X66000518Y-30000546D01*
G37*
%TD.AperFunction*%
%TD*%
M02*
