M48
; DRILL file {KiCad 7.0.5} date Mon Jan  8 00:08:47 2024
; FORMAT={-:-/ absolute / inch / decimal}
; #@! TF.CreationDate,2024-01-08T00:08:47+01:00
; #@! TF.GenerationSoftware,Kicad,Pcbnew,7.0.5
; #@! TF.FileFunction,Plated,1,2,PTH
FMAT,2
INCH
; #@! TA.AperFunction,Plated,PTH,ViaDrill
T1C0.0157
; #@! TA.AperFunction,Plated,PTH,ComponentDrill
T2C0.0236
; #@! TA.AperFunction,Plated,PTH,ComponentDrill
T3C0.0276
; #@! TA.AperFunction,Plated,PTH,ComponentDrill
T4C0.0394
; #@! TA.AperFunction,Plated,PTH,ComponentDrill
T5C0.0866
%
G90
G05
T1
X0.81Y-1.6937
X0.82Y-1.4537
X0.87Y-1.9337
X0.92Y-1.3137
X0.9917Y-1.2812
X1.1Y-1.3922
X1.12Y-1.9437
X1.122Y-1.6575
X1.1544Y-1.5105
X1.2Y-1.5737
X1.25Y-1.3637
X1.27Y-1.2537
X1.27Y-1.5837
X1.28Y-1.4337
X1.3146Y-1.8451
X1.3154Y-1.9295
X1.32Y-1.3337
X1.37Y-1.4337
X1.3795Y-1.6237
X1.38Y-1.3937
X1.44Y-1.8437
X1.46Y-1.2371
X1.4862Y-1.6237
X1.4896Y-1.273
X1.49Y-1.7237
X1.49Y-1.8839
X1.52Y-1.3637
X1.53Y-1.5637
X1.5487Y-1.2271
X1.56Y-1.7337
X1.58Y-1.4537
X1.62Y-1.4537
X1.64Y-1.5637
X1.64Y-1.6837
X1.66Y-1.5137
X1.6621Y-1.2436
X1.67Y-1.6237
X1.7Y-1.6537
X1.7082Y-1.3298
X1.71Y-1.3691
X1.71Y-1.4087
X1.7182Y-1.2629
X1.76Y-1.3937
X1.76Y-1.6337
X1.83Y-1.6437
X1.84Y-1.5537
X1.86Y-1.4937
X1.8698Y-1.6442
X1.88Y-1.7122
X1.9Y-1.4037
X1.9Y-1.4937
X1.91Y-1.63
X1.98Y-1.2371
X1.99Y-1.3537
X1.9958Y-1.4763
X2.0Y-1.5737
X2.08Y-1.7537
X2.12Y-1.3537
X2.1458Y-1.4763
X2.1508Y-1.2737
X2.18Y-1.9137
X2.2Y-1.5237
X2.21Y-1.4037
X2.24Y-1.3437
X2.25Y-1.2437
X2.25Y-1.7637
X2.37Y-1.9137
X2.43Y-1.6737
X2.43Y-1.8137
X2.47Y-1.9437
X2.48Y-1.3737
X2.59Y-1.2137
X2.61Y-1.4337
X2.61Y-1.6737
T3
X2.3383Y-1.4567
X2.3383Y-1.5354
X2.3383Y-1.6142
X2.3383Y-1.6929
T4
X2.4606Y-1.2937
X2.5606Y-1.2937
T5
X1.7323Y-1.8504
T2
G00X0.8812Y-1.4047
M15
G01X0.8497Y-1.4047
M16
G05
G00X0.8812Y-1.7449
M15
G01X0.8497Y-1.7449
M16
G05
G00X1.0517Y-1.4047
M15
G01X1.0083Y-1.4047
M16
G05
G00X1.0517Y-1.7449
M15
G01X1.0083Y-1.7449
M16
G05
T0
M30
